<mxfile host="app.diagrams.net" modified="2020-04-27T08:46:00.370Z" agent="5.0 (Windows NT 10.0; Win64; x64) AppleWebKit/537.36 (KHTML, like Gecko) Chrome/81.0.4044.92 Safari/537.36" etag="K9lk0rJNv1uWEqKcYTPL" version="13.0.1" type="github">
  <diagram id="pTIBHhMJ6O9ynmmQ5_P_" name="Page-1">
    <mxGraphModel dx="950" dy="486" grid="1" gridSize="10" guides="1" tooltips="1" connect="1" arrows="1" fold="1" page="1" pageScale="1" pageWidth="850" pageHeight="1100" math="0" shadow="0">
      <root>
        <mxCell id="0" />
        <mxCell id="1" parent="0" />
        <mxCell id="IrSjTnCQqFItNlR5k4_0-5" value="" style="endArrow=none;dashed=1;html=1;opacity=50;fillColor=#f5f5f5;strokeColor=#666666;strokeWidth=3;" parent="1" source="IrSjTnCQqFItNlR5k4_0-18" edge="1">
          <mxGeometry width="50" height="50" relative="1" as="geometry">
            <mxPoint x="40.5" y="180" as="sourcePoint" />
            <mxPoint x="800.5" y="180" as="targetPoint" />
          </mxGeometry>
        </mxCell>
        <mxCell id="IrSjTnCQqFItNlR5k4_0-6" value="" style="endArrow=none;dashed=1;html=1;opacity=50;fillColor=#f5f5f5;strokeColor=#666666;strokeWidth=3;" parent="1" source="IrSjTnCQqFItNlR5k4_0-28" edge="1">
          <mxGeometry width="50" height="50" relative="1" as="geometry">
            <mxPoint x="40.5" y="260" as="sourcePoint" />
            <mxPoint x="800.5" y="260" as="targetPoint" />
          </mxGeometry>
        </mxCell>
        <mxCell id="IrSjTnCQqFItNlR5k4_0-1" value="" style="endArrow=classic;html=1;strokeWidth=3;opacity=50;" parent="1" edge="1">
          <mxGeometry width="50" height="50" relative="1" as="geometry">
            <mxPoint x="40.5" y="110" as="sourcePoint" />
            <mxPoint x="130.5" y="110" as="targetPoint" />
          </mxGeometry>
        </mxCell>
        <mxCell id="IrSjTnCQqFItNlR5k4_0-2" value="" style="endArrow=classic;html=1;strokeWidth=3;opacity=50;" parent="1" edge="1">
          <mxGeometry width="50" height="50" relative="1" as="geometry">
            <mxPoint x="150.5000000000001" y="110" as="sourcePoint" />
            <mxPoint x="360.5" y="110" as="targetPoint" />
          </mxGeometry>
        </mxCell>
        <mxCell id="IrSjTnCQqFItNlR5k4_0-3" value="" style="endArrow=classic;html=1;strokeWidth=3;opacity=50;" parent="1" edge="1">
          <mxGeometry width="50" height="50" relative="1" as="geometry">
            <mxPoint x="380.5" y="110" as="sourcePoint" />
            <mxPoint x="650.5" y="110" as="targetPoint" />
          </mxGeometry>
        </mxCell>
        <mxCell id="IrSjTnCQqFItNlR5k4_0-4" value="" style="endArrow=classic;html=1;strokeWidth=3;opacity=50;" parent="1" edge="1">
          <mxGeometry width="50" height="50" relative="1" as="geometry">
            <mxPoint x="670.5" y="110" as="sourcePoint" />
            <mxPoint x="760.5" y="110" as="targetPoint" />
          </mxGeometry>
        </mxCell>
        <mxCell id="IrSjTnCQqFItNlR5k4_0-7" value="" style="endArrow=none;dashed=1;html=1;opacity=50;fillColor=#f5f5f5;strokeColor=#666666;" parent="1" source="IrSjTnCQqFItNlR5k4_0-49" edge="1">
          <mxGeometry width="50" height="50" relative="1" as="geometry">
            <mxPoint x="40.5" y="340" as="sourcePoint" />
            <mxPoint x="760.5" y="340" as="targetPoint" />
          </mxGeometry>
        </mxCell>
        <mxCell id="IrSjTnCQqFItNlR5k4_0-8" value="" style="endArrow=none;dashed=1;html=1;opacity=50;fillColor=#f5f5f5;strokeColor=#666666;strokeWidth=3;" parent="1" source="IrSjTnCQqFItNlR5k4_0-58" edge="1">
          <mxGeometry width="50" height="50" relative="1" as="geometry">
            <mxPoint x="40.5" y="380" as="sourcePoint" />
            <mxPoint x="800.5" y="380" as="targetPoint" />
          </mxGeometry>
        </mxCell>
        <mxCell id="IrSjTnCQqFItNlR5k4_0-9" value="" style="endArrow=none;dashed=1;html=1;opacity=50;fillColor=#f5f5f5;strokeColor=#666666;strokeWidth=3;" parent="1" source="IrSjTnCQqFItNlR5k4_0-66" edge="1">
          <mxGeometry width="50" height="50" relative="1" as="geometry">
            <mxPoint x="40.5" y="420" as="sourcePoint" />
            <mxPoint x="800.5" y="420" as="targetPoint" />
          </mxGeometry>
        </mxCell>
        <mxCell id="IrSjTnCQqFItNlR5k4_0-10" value="" style="endArrow=classic;html=1;opacity=50;strokeWidth=10;" parent="1" edge="1">
          <mxGeometry width="50" height="50" relative="1" as="geometry">
            <mxPoint x="40.5" y="470" as="sourcePoint" />
            <mxPoint x="800.5" y="470" as="targetPoint" />
          </mxGeometry>
        </mxCell>
        <mxCell id="IrSjTnCQqFItNlR5k4_0-14" value="" style="ellipse;whiteSpace=wrap;html=1;aspect=fixed;fillColor=#dae8fc;strokeColor=#6c8ebf;" parent="1" vertex="1">
          <mxGeometry x="130.5" y="100" width="20" height="20" as="geometry" />
        </mxCell>
        <mxCell id="IrSjTnCQqFItNlR5k4_0-15" value="" style="ellipse;whiteSpace=wrap;html=1;aspect=fixed;fillColor=#dae8fc;strokeColor=#6c8ebf;" parent="1" vertex="1">
          <mxGeometry x="360.5" y="100" width="20" height="20" as="geometry" />
        </mxCell>
        <mxCell id="IrSjTnCQqFItNlR5k4_0-16" value="" style="ellipse;whiteSpace=wrap;html=1;aspect=fixed;fillColor=#dae8fc;strokeColor=#6c8ebf;" parent="1" vertex="1">
          <mxGeometry x="650.5" y="100" width="20" height="20" as="geometry" />
        </mxCell>
        <mxCell id="IrSjTnCQqFItNlR5k4_0-17" value="" style="ellipse;whiteSpace=wrap;html=1;aspect=fixed;fillColor=#dae8fc;strokeColor=#6c8ebf;" parent="1" vertex="1">
          <mxGeometry x="760.5" y="100" width="20" height="20" as="geometry" />
        </mxCell>
        <mxCell id="IrSjTnCQqFItNlR5k4_0-18" value="" style="ellipse;whiteSpace=wrap;html=1;aspect=fixed;fillColor=#f8cecc;strokeColor=#b85450;" parent="1" vertex="1">
          <mxGeometry x="320.5" y="170" width="20" height="20" as="geometry" />
        </mxCell>
        <mxCell id="IrSjTnCQqFItNlR5k4_0-19" value="" style="endArrow=none;dashed=1;html=1;opacity=50;fillColor=#f5f5f5;strokeColor=#666666;strokeWidth=3;" parent="1" target="IrSjTnCQqFItNlR5k4_0-18" edge="1">
          <mxGeometry width="50" height="50" relative="1" as="geometry">
            <mxPoint x="40.500000000000114" y="180" as="sourcePoint" />
            <mxPoint x="760.5" y="180" as="targetPoint" />
          </mxGeometry>
        </mxCell>
        <mxCell id="IrSjTnCQqFItNlR5k4_0-20" value="" style="ellipse;whiteSpace=wrap;html=1;aspect=fixed;fillColor=#d5e8d4;strokeColor=#82b366;" parent="1" vertex="1">
          <mxGeometry x="450.5" y="250" width="20" height="20" as="geometry" />
        </mxCell>
        <mxCell id="IrSjTnCQqFItNlR5k4_0-21" value="" style="endArrow=none;dashed=1;html=1;opacity=50;fillColor=#f5f5f5;strokeColor=#666666;strokeWidth=3;" parent="1" target="IrSjTnCQqFItNlR5k4_0-20" edge="1">
          <mxGeometry width="50" height="50" relative="1" as="geometry">
            <mxPoint x="40.500000000000114" y="260" as="sourcePoint" />
            <mxPoint x="760.5" y="260" as="targetPoint" />
          </mxGeometry>
        </mxCell>
        <mxCell id="IrSjTnCQqFItNlR5k4_0-22" value="" style="ellipse;whiteSpace=wrap;html=1;aspect=fixed;fillColor=#d5e8d4;strokeColor=#82b366;" parent="1" vertex="1">
          <mxGeometry x="500.5" y="250" width="20" height="20" as="geometry" />
        </mxCell>
        <mxCell id="IrSjTnCQqFItNlR5k4_0-23" value="" style="endArrow=none;dashed=1;html=1;opacity=50;fillColor=#f5f5f5;strokeColor=#666666;" parent="1" source="IrSjTnCQqFItNlR5k4_0-20" target="IrSjTnCQqFItNlR5k4_0-22" edge="1">
          <mxGeometry width="50" height="50" relative="1" as="geometry">
            <mxPoint x="470.5" y="260" as="sourcePoint" />
            <mxPoint x="760.5" y="260" as="targetPoint" />
          </mxGeometry>
        </mxCell>
        <mxCell id="IrSjTnCQqFItNlR5k4_0-24" value="" style="ellipse;whiteSpace=wrap;html=1;aspect=fixed;fillColor=#d5e8d4;strokeColor=#82b366;" parent="1" vertex="1">
          <mxGeometry x="550.5" y="250" width="20" height="20" as="geometry" />
        </mxCell>
        <mxCell id="IrSjTnCQqFItNlR5k4_0-25" value="" style="endArrow=none;dashed=1;html=1;opacity=50;fillColor=#f5f5f5;strokeColor=#666666;" parent="1" source="IrSjTnCQqFItNlR5k4_0-22" target="IrSjTnCQqFItNlR5k4_0-24" edge="1">
          <mxGeometry width="50" height="50" relative="1" as="geometry">
            <mxPoint x="520.5" y="260" as="sourcePoint" />
            <mxPoint x="760.5" y="260" as="targetPoint" />
          </mxGeometry>
        </mxCell>
        <mxCell id="IrSjTnCQqFItNlR5k4_0-26" value="" style="ellipse;whiteSpace=wrap;html=1;aspect=fixed;fillColor=#d5e8d4;strokeColor=#82b366;" parent="1" vertex="1">
          <mxGeometry x="600.5" y="250" width="20" height="20" as="geometry" />
        </mxCell>
        <mxCell id="IrSjTnCQqFItNlR5k4_0-27" value="" style="endArrow=none;dashed=1;html=1;opacity=50;fillColor=#f5f5f5;strokeColor=#666666;" parent="1" source="IrSjTnCQqFItNlR5k4_0-24" target="IrSjTnCQqFItNlR5k4_0-26" edge="1">
          <mxGeometry width="50" height="50" relative="1" as="geometry">
            <mxPoint x="570.5" y="260" as="sourcePoint" />
            <mxPoint x="760.5" y="260" as="targetPoint" />
          </mxGeometry>
        </mxCell>
        <mxCell id="IrSjTnCQqFItNlR5k4_0-28" value="" style="ellipse;whiteSpace=wrap;html=1;aspect=fixed;fillColor=#d5e8d4;strokeColor=#82b366;" parent="1" vertex="1">
          <mxGeometry x="720.5" y="250" width="20" height="20" as="geometry" />
        </mxCell>
        <mxCell id="IrSjTnCQqFItNlR5k4_0-29" value="" style="endArrow=none;dashed=1;html=1;opacity=50;fillColor=#f5f5f5;strokeColor=#666666;strokeWidth=3;" parent="1" source="IrSjTnCQqFItNlR5k4_0-26" target="IrSjTnCQqFItNlR5k4_0-28" edge="1">
          <mxGeometry width="50" height="50" relative="1" as="geometry">
            <mxPoint x="620.5" y="260" as="sourcePoint" />
            <mxPoint x="760.5" y="260" as="targetPoint" />
          </mxGeometry>
        </mxCell>
        <mxCell id="IrSjTnCQqFItNlR5k4_0-34" value="" style="ellipse;whiteSpace=wrap;html=1;aspect=fixed;fillColor=#fff2cc;strokeColor=#d6b656;" parent="1" vertex="1">
          <mxGeometry x="160.5" y="330" width="20" height="20" as="geometry" />
        </mxCell>
        <mxCell id="IrSjTnCQqFItNlR5k4_0-35" value="" style="endArrow=none;dashed=1;html=1;opacity=50;fillColor=#f5f5f5;strokeColor=#666666;strokeWidth=3;" parent="1" target="IrSjTnCQqFItNlR5k4_0-34" edge="1">
          <mxGeometry width="50" height="50" relative="1" as="geometry">
            <mxPoint x="40.5" y="340" as="sourcePoint" />
            <mxPoint x="760.5" y="340" as="targetPoint" />
          </mxGeometry>
        </mxCell>
        <mxCell id="IrSjTnCQqFItNlR5k4_0-36" value="" style="ellipse;whiteSpace=wrap;html=1;aspect=fixed;fillColor=#fff2cc;strokeColor=#d6b656;" parent="1" vertex="1">
          <mxGeometry x="200.5" y="330" width="20" height="20" as="geometry" />
        </mxCell>
        <mxCell id="IrSjTnCQqFItNlR5k4_0-37" value="" style="ellipse;whiteSpace=wrap;html=1;aspect=fixed;fillColor=#fff2cc;strokeColor=#d6b656;" parent="1" vertex="1">
          <mxGeometry x="240.5" y="330" width="20" height="20" as="geometry" />
        </mxCell>
        <mxCell id="IrSjTnCQqFItNlR5k4_0-38" value="" style="endArrow=none;dashed=1;html=1;opacity=50;fillColor=#f5f5f5;strokeColor=#666666;" parent="1" source="IrSjTnCQqFItNlR5k4_0-34" target="IrSjTnCQqFItNlR5k4_0-37" edge="1">
          <mxGeometry width="50" height="50" relative="1" as="geometry">
            <mxPoint x="190.4999999999959" y="340" as="sourcePoint" />
            <mxPoint x="760.5" y="340" as="targetPoint" />
            <Array as="points">
              <mxPoint x="210.5" y="340" />
            </Array>
          </mxGeometry>
        </mxCell>
        <mxCell id="IrSjTnCQqFItNlR5k4_0-39" value="" style="ellipse;whiteSpace=wrap;html=1;aspect=fixed;fillColor=#fff2cc;strokeColor=#d6b656;" parent="1" vertex="1">
          <mxGeometry x="280.5" y="330" width="20" height="20" as="geometry" />
        </mxCell>
        <mxCell id="IrSjTnCQqFItNlR5k4_0-40" value="" style="endArrow=none;dashed=1;html=1;opacity=50;fillColor=#f5f5f5;strokeColor=#666666;" parent="1" source="IrSjTnCQqFItNlR5k4_0-37" target="IrSjTnCQqFItNlR5k4_0-39" edge="1">
          <mxGeometry width="50" height="50" relative="1" as="geometry">
            <mxPoint x="270.5" y="340" as="sourcePoint" />
            <mxPoint x="760.5" y="340" as="targetPoint" />
          </mxGeometry>
        </mxCell>
        <mxCell id="IrSjTnCQqFItNlR5k4_0-41" value="" style="ellipse;whiteSpace=wrap;html=1;aspect=fixed;fillColor=#fff2cc;strokeColor=#d6b656;" parent="1" vertex="1">
          <mxGeometry x="370.5" y="330" width="20" height="20" as="geometry" />
        </mxCell>
        <mxCell id="IrSjTnCQqFItNlR5k4_0-42" value="" style="endArrow=none;dashed=1;html=1;opacity=50;fillColor=#f5f5f5;strokeColor=#666666;" parent="1" source="IrSjTnCQqFItNlR5k4_0-39" target="IrSjTnCQqFItNlR5k4_0-41" edge="1">
          <mxGeometry width="50" height="50" relative="1" as="geometry">
            <mxPoint x="310.5" y="340" as="sourcePoint" />
            <mxPoint x="760.5" y="340" as="targetPoint" />
          </mxGeometry>
        </mxCell>
        <mxCell id="IrSjTnCQqFItNlR5k4_0-43" value="" style="ellipse;whiteSpace=wrap;html=1;aspect=fixed;fillColor=#fff2cc;strokeColor=#d6b656;" parent="1" vertex="1">
          <mxGeometry x="430.5" y="330" width="20" height="20" as="geometry" />
        </mxCell>
        <mxCell id="IrSjTnCQqFItNlR5k4_0-44" value="" style="endArrow=none;dashed=1;html=1;opacity=50;fillColor=#f5f5f5;strokeColor=#666666;" parent="1" source="IrSjTnCQqFItNlR5k4_0-41" target="IrSjTnCQqFItNlR5k4_0-43" edge="1">
          <mxGeometry width="50" height="50" relative="1" as="geometry">
            <mxPoint x="390.4999999999959" y="340" as="sourcePoint" />
            <mxPoint x="760.5" y="340" as="targetPoint" />
          </mxGeometry>
        </mxCell>
        <mxCell id="IrSjTnCQqFItNlR5k4_0-45" value="" style="ellipse;whiteSpace=wrap;html=1;aspect=fixed;fillColor=#fff2cc;strokeColor=#d6b656;" parent="1" vertex="1">
          <mxGeometry x="520.5" y="330" width="20" height="20" as="geometry" />
        </mxCell>
        <mxCell id="IrSjTnCQqFItNlR5k4_0-46" value="" style="endArrow=none;dashed=1;html=1;opacity=50;fillColor=#f5f5f5;strokeColor=#666666;" parent="1" source="IrSjTnCQqFItNlR5k4_0-43" target="IrSjTnCQqFItNlR5k4_0-45" edge="1">
          <mxGeometry width="50" height="50" relative="1" as="geometry">
            <mxPoint x="450.5" y="340" as="sourcePoint" />
            <mxPoint x="760.5" y="340" as="targetPoint" />
          </mxGeometry>
        </mxCell>
        <mxCell id="IrSjTnCQqFItNlR5k4_0-47" value="" style="ellipse;whiteSpace=wrap;html=1;aspect=fixed;fillColor=#fff2cc;strokeColor=#d6b656;" parent="1" vertex="1">
          <mxGeometry x="620.5" y="330" width="20" height="20" as="geometry" />
        </mxCell>
        <mxCell id="IrSjTnCQqFItNlR5k4_0-48" value="" style="ellipse;whiteSpace=wrap;html=1;aspect=fixed;fillColor=#fff2cc;strokeColor=#d6b656;" parent="1" vertex="1">
          <mxGeometry x="690.5" y="330" width="20" height="20" as="geometry" />
        </mxCell>
        <mxCell id="IrSjTnCQqFItNlR5k4_0-49" value="" style="ellipse;whiteSpace=wrap;html=1;aspect=fixed;fillColor=#fff2cc;strokeColor=#d6b656;" parent="1" vertex="1">
          <mxGeometry x="750.5" y="330" width="20" height="20" as="geometry" />
        </mxCell>
        <mxCell id="IrSjTnCQqFItNlR5k4_0-50" value="" style="endArrow=none;dashed=1;html=1;opacity=50;fillColor=#f5f5f5;strokeColor=#666666;" parent="1" source="IrSjTnCQqFItNlR5k4_0-45" target="IrSjTnCQqFItNlR5k4_0-49" edge="1">
          <mxGeometry width="50" height="50" relative="1" as="geometry">
            <mxPoint x="540.4999999999917" y="340" as="sourcePoint" />
            <mxPoint x="760.5" y="340" as="targetPoint" />
          </mxGeometry>
        </mxCell>
        <mxCell id="IrSjTnCQqFItNlR5k4_0-51" value="" style="ellipse;whiteSpace=wrap;html=1;aspect=fixed;fillColor=#e1d5e7;strokeColor=#9673a6;" parent="1" vertex="1">
          <mxGeometry x="270.5" y="370" width="20" height="20" as="geometry" />
        </mxCell>
        <mxCell id="IrSjTnCQqFItNlR5k4_0-52" value="" style="ellipse;whiteSpace=wrap;html=1;aspect=fixed;fillColor=#e1d5e7;strokeColor=#9673a6;" parent="1" vertex="1">
          <mxGeometry x="330.5" y="370" width="20" height="20" as="geometry" />
        </mxCell>
        <mxCell id="IrSjTnCQqFItNlR5k4_0-53" value="" style="ellipse;whiteSpace=wrap;html=1;aspect=fixed;fillColor=#e1d5e7;strokeColor=#9673a6;" parent="1" vertex="1">
          <mxGeometry x="390.5" y="370" width="20" height="20" as="geometry" />
        </mxCell>
        <mxCell id="IrSjTnCQqFItNlR5k4_0-54" value="" style="ellipse;whiteSpace=wrap;html=1;aspect=fixed;fillColor=#b1ddf0;strokeColor=#10739e;" parent="1" vertex="1">
          <mxGeometry x="560.5" y="370" width="20" height="20" as="geometry" />
        </mxCell>
        <mxCell id="IrSjTnCQqFItNlR5k4_0-55" value="" style="endArrow=none;dashed=1;html=1;opacity=50;fillColor=#f5f5f5;strokeColor=#666666;strokeWidth=3;" parent="1" target="IrSjTnCQqFItNlR5k4_0-54" edge="1">
          <mxGeometry width="50" height="50" relative="1" as="geometry">
            <mxPoint x="40.5" y="380" as="sourcePoint" />
            <mxPoint x="760.5" y="380" as="targetPoint" />
          </mxGeometry>
        </mxCell>
        <mxCell id="IrSjTnCQqFItNlR5k4_0-56" value="" style="ellipse;whiteSpace=wrap;html=1;aspect=fixed;fillColor=#b1ddf0;strokeColor=#10739e;" parent="1" vertex="1">
          <mxGeometry x="610.5" y="370" width="20" height="20" as="geometry" />
        </mxCell>
        <mxCell id="IrSjTnCQqFItNlR5k4_0-57" value="" style="endArrow=none;dashed=1;html=1;opacity=50;fillColor=#f5f5f5;strokeColor=#666666;" parent="1" source="IrSjTnCQqFItNlR5k4_0-54" target="IrSjTnCQqFItNlR5k4_0-56" edge="1">
          <mxGeometry width="50" height="50" relative="1" as="geometry">
            <mxPoint x="580.5" y="380" as="sourcePoint" />
            <mxPoint x="760.5" y="380" as="targetPoint" />
          </mxGeometry>
        </mxCell>
        <mxCell id="IrSjTnCQqFItNlR5k4_0-58" value="" style="ellipse;whiteSpace=wrap;html=1;aspect=fixed;fillColor=#b1ddf0;strokeColor=#10739e;" parent="1" vertex="1">
          <mxGeometry x="660.5" y="370" width="20" height="20" as="geometry" />
        </mxCell>
        <mxCell id="IrSjTnCQqFItNlR5k4_0-59" value="" style="endArrow=none;dashed=1;html=1;opacity=50;fillColor=#f5f5f5;strokeColor=#666666;" parent="1" source="IrSjTnCQqFItNlR5k4_0-56" target="IrSjTnCQqFItNlR5k4_0-58" edge="1">
          <mxGeometry width="50" height="50" relative="1" as="geometry">
            <mxPoint x="630.4999999999916" y="380" as="sourcePoint" />
            <mxPoint x="760.5" y="380" as="targetPoint" />
          </mxGeometry>
        </mxCell>
        <mxCell id="IrSjTnCQqFItNlR5k4_0-60" value="" style="ellipse;whiteSpace=wrap;html=1;aspect=fixed;fillColor=#fad7ac;strokeColor=#b46504;" parent="1" vertex="1">
          <mxGeometry x="260.5" y="410" width="20" height="20" as="geometry" />
        </mxCell>
        <mxCell id="IrSjTnCQqFItNlR5k4_0-61" value="" style="endArrow=none;dashed=1;html=1;opacity=50;fillColor=#f5f5f5;strokeColor=#666666;strokeWidth=3;" parent="1" target="IrSjTnCQqFItNlR5k4_0-60" edge="1">
          <mxGeometry width="50" height="50" relative="1" as="geometry">
            <mxPoint x="40.5" y="420" as="sourcePoint" />
            <mxPoint x="760.5" y="420" as="targetPoint" />
          </mxGeometry>
        </mxCell>
        <mxCell id="IrSjTnCQqFItNlR5k4_0-62" value="" style="ellipse;whiteSpace=wrap;html=1;aspect=fixed;fillColor=#fad7ac;strokeColor=#b46504;" parent="1" vertex="1">
          <mxGeometry x="310.5" y="410" width="20" height="20" as="geometry" />
        </mxCell>
        <mxCell id="IrSjTnCQqFItNlR5k4_0-63" value="" style="endArrow=none;dashed=1;html=1;opacity=50;fillColor=#f5f5f5;strokeColor=#666666;" parent="1" source="IrSjTnCQqFItNlR5k4_0-60" target="IrSjTnCQqFItNlR5k4_0-62" edge="1">
          <mxGeometry width="50" height="50" relative="1" as="geometry">
            <mxPoint x="280.5000000000041" y="420" as="sourcePoint" />
            <mxPoint x="760.5" y="420" as="targetPoint" />
          </mxGeometry>
        </mxCell>
        <mxCell id="IrSjTnCQqFItNlR5k4_0-64" value="" style="ellipse;whiteSpace=wrap;html=1;aspect=fixed;fillColor=#fad7ac;strokeColor=#b46504;" parent="1" vertex="1">
          <mxGeometry x="530.5" y="410" width="20" height="20" as="geometry" />
        </mxCell>
        <mxCell id="IrSjTnCQqFItNlR5k4_0-65" value="" style="endArrow=none;dashed=1;html=1;opacity=50;fillColor=#f5f5f5;strokeColor=#666666;" parent="1" source="IrSjTnCQqFItNlR5k4_0-62" target="IrSjTnCQqFItNlR5k4_0-64" edge="1">
          <mxGeometry width="50" height="50" relative="1" as="geometry">
            <mxPoint x="330.5000000000041" y="420" as="sourcePoint" />
            <mxPoint x="760.5" y="420" as="targetPoint" />
          </mxGeometry>
        </mxCell>
        <mxCell id="IrSjTnCQqFItNlR5k4_0-66" value="" style="ellipse;whiteSpace=wrap;html=1;aspect=fixed;fillColor=#fad7ac;strokeColor=#b46504;" parent="1" vertex="1">
          <mxGeometry x="680.5" y="410" width="20" height="20" as="geometry" />
        </mxCell>
        <mxCell id="IrSjTnCQqFItNlR5k4_0-67" value="" style="endArrow=none;dashed=1;html=1;opacity=50;fillColor=#f5f5f5;strokeColor=#666666;" parent="1" source="IrSjTnCQqFItNlR5k4_0-64" target="IrSjTnCQqFItNlR5k4_0-66" edge="1">
          <mxGeometry width="50" height="50" relative="1" as="geometry">
            <mxPoint x="550.5" y="420" as="sourcePoint" />
            <mxPoint x="760.5" y="420" as="targetPoint" />
          </mxGeometry>
        </mxCell>
        <mxCell id="IrSjTnCQqFItNlR5k4_0-70" value="" style="endArrow=classic;html=1;strokeWidth=3;opacity=50;exitX=0.5;exitY=1;exitDx=0;exitDy=0;entryX=0.5;entryY=0;entryDx=0;entryDy=0;" parent="1" source="IrSjTnCQqFItNlR5k4_0-14" target="IrSjTnCQqFItNlR5k4_0-34" edge="1">
          <mxGeometry width="50" height="50" relative="1" as="geometry">
            <mxPoint x="130.5" y="190" as="sourcePoint" />
            <mxPoint x="180.5" y="140" as="targetPoint" />
          </mxGeometry>
        </mxCell>
        <mxCell id="IrSjTnCQqFItNlR5k4_0-71" value="" style="endArrow=classic;html=1;strokeWidth=3;opacity=50;exitX=1;exitY=0.5;exitDx=0;exitDy=0;" parent="1" source="IrSjTnCQqFItNlR5k4_0-34" edge="1">
          <mxGeometry width="50" height="50" relative="1" as="geometry">
            <mxPoint x="410.5" y="310" as="sourcePoint" />
            <mxPoint x="200.5" y="340" as="targetPoint" />
          </mxGeometry>
        </mxCell>
        <mxCell id="IrSjTnCQqFItNlR5k4_0-72" value="" style="endArrow=classic;html=1;strokeWidth=3;opacity=50;exitX=1;exitY=0.5;exitDx=0;exitDy=0;" parent="1" edge="1">
          <mxGeometry width="50" height="50" relative="1" as="geometry">
            <mxPoint x="220.5" y="339.76" as="sourcePoint" />
            <mxPoint x="240.5" y="339.76" as="targetPoint" />
          </mxGeometry>
        </mxCell>
        <mxCell id="IrSjTnCQqFItNlR5k4_0-73" value="" style="endArrow=classic;html=1;strokeWidth=3;opacity=50;exitX=1;exitY=0.5;exitDx=0;exitDy=0;" parent="1" edge="1">
          <mxGeometry width="50" height="50" relative="1" as="geometry">
            <mxPoint x="260.5" y="339.76" as="sourcePoint" />
            <mxPoint x="280.5" y="339.76" as="targetPoint" />
          </mxGeometry>
        </mxCell>
        <mxCell id="IrSjTnCQqFItNlR5k4_0-74" value="" style="endArrow=classic;html=1;strokeWidth=3;opacity=50;exitX=1;exitY=0.5;exitDx=0;exitDy=0;" parent="1" edge="1">
          <mxGeometry width="50" height="50" relative="1" as="geometry">
            <mxPoint x="300.5" y="339.76" as="sourcePoint" />
            <mxPoint x="370.5" y="340" as="targetPoint" />
          </mxGeometry>
        </mxCell>
        <mxCell id="IrSjTnCQqFItNlR5k4_0-75" value="" style="endArrow=classic;html=1;strokeWidth=3;opacity=50;exitX=1;exitY=0.5;exitDx=0;exitDy=0;" parent="1" edge="1">
          <mxGeometry width="50" height="50" relative="1" as="geometry">
            <mxPoint x="390.5" y="339.76" as="sourcePoint" />
            <mxPoint x="430.5" y="340" as="targetPoint" />
          </mxGeometry>
        </mxCell>
        <mxCell id="IrSjTnCQqFItNlR5k4_0-76" value="" style="endArrow=classic;html=1;strokeWidth=3;opacity=50;exitX=1;exitY=0.5;exitDx=0;exitDy=0;" parent="1" edge="1">
          <mxGeometry width="50" height="50" relative="1" as="geometry">
            <mxPoint x="450.5" y="339.76" as="sourcePoint" />
            <mxPoint x="520.5" y="340" as="targetPoint" />
          </mxGeometry>
        </mxCell>
        <mxCell id="IrSjTnCQqFItNlR5k4_0-77" value="" style="endArrow=classic;html=1;strokeWidth=3;opacity=50;exitX=1;exitY=0.5;exitDx=0;exitDy=0;" parent="1" edge="1">
          <mxGeometry width="50" height="50" relative="1" as="geometry">
            <mxPoint x="540.5" y="339.76" as="sourcePoint" />
            <mxPoint x="620.5" y="340" as="targetPoint" />
          </mxGeometry>
        </mxCell>
        <mxCell id="IrSjTnCQqFItNlR5k4_0-78" value="" style="endArrow=classic;html=1;strokeWidth=3;opacity=50;exitX=1;exitY=0.5;exitDx=0;exitDy=0;" parent="1" edge="1">
          <mxGeometry width="50" height="50" relative="1" as="geometry">
            <mxPoint x="640.5" y="339.76" as="sourcePoint" />
            <mxPoint x="690.5" y="340" as="targetPoint" />
          </mxGeometry>
        </mxCell>
        <mxCell id="IrSjTnCQqFItNlR5k4_0-79" value="" style="endArrow=classic;html=1;strokeWidth=3;opacity=50;exitX=1;exitY=0.5;exitDx=0;exitDy=0;" parent="1" edge="1">
          <mxGeometry width="50" height="50" relative="1" as="geometry">
            <mxPoint x="710.5" y="339.76" as="sourcePoint" />
            <mxPoint x="750.5" y="340" as="targetPoint" />
          </mxGeometry>
        </mxCell>
        <mxCell id="IrSjTnCQqFItNlR5k4_0-80" value="" style="endArrow=classic;html=1;strokeWidth=3;opacity=50;exitX=1;exitY=0.5;exitDx=0;exitDy=0;" parent="1" edge="1">
          <mxGeometry width="50" height="50" relative="1" as="geometry">
            <mxPoint x="290.5" y="379.76" as="sourcePoint" />
            <mxPoint x="330.5" y="380" as="targetPoint" />
          </mxGeometry>
        </mxCell>
        <mxCell id="IrSjTnCQqFItNlR5k4_0-81" value="" style="endArrow=classic;html=1;strokeWidth=3;opacity=50;exitX=1;exitY=0.5;exitDx=0;exitDy=0;" parent="1" edge="1">
          <mxGeometry width="50" height="50" relative="1" as="geometry">
            <mxPoint x="350.5" y="379.76" as="sourcePoint" />
            <mxPoint x="390.5" y="380" as="targetPoint" />
          </mxGeometry>
        </mxCell>
        <mxCell id="IrSjTnCQqFItNlR5k4_0-82" value="" style="endArrow=classic;html=1;strokeWidth=3;opacity=50;exitX=1;exitY=0.5;exitDx=0;exitDy=0;" parent="1" edge="1">
          <mxGeometry width="50" height="50" relative="1" as="geometry">
            <mxPoint x="580.5" y="379.76" as="sourcePoint" />
            <mxPoint x="610.5" y="380" as="targetPoint" />
          </mxGeometry>
        </mxCell>
        <mxCell id="IrSjTnCQqFItNlR5k4_0-83" value="" style="endArrow=classic;html=1;strokeWidth=3;opacity=50;exitX=1;exitY=0.5;exitDx=0;exitDy=0;" parent="1" edge="1">
          <mxGeometry width="50" height="50" relative="1" as="geometry">
            <mxPoint x="630.5" y="379.76" as="sourcePoint" />
            <mxPoint x="660.5" y="380" as="targetPoint" />
          </mxGeometry>
        </mxCell>
        <mxCell id="IrSjTnCQqFItNlR5k4_0-84" value="" style="endArrow=classic;html=1;strokeWidth=3;opacity=50;" parent="1" edge="1">
          <mxGeometry width="50" height="50" relative="1" as="geometry">
            <mxPoint x="280.5" y="420" as="sourcePoint" />
            <mxPoint x="310.5" y="420" as="targetPoint" />
          </mxGeometry>
        </mxCell>
        <mxCell id="IrSjTnCQqFItNlR5k4_0-85" value="" style="endArrow=classic;html=1;strokeWidth=3;opacity=50;entryX=0;entryY=0.5;entryDx=0;entryDy=0;" parent="1" target="IrSjTnCQqFItNlR5k4_0-64" edge="1">
          <mxGeometry width="50" height="50" relative="1" as="geometry">
            <mxPoint x="330.5" y="419.8" as="sourcePoint" />
            <mxPoint x="360.5" y="419.8" as="targetPoint" />
          </mxGeometry>
        </mxCell>
        <mxCell id="IrSjTnCQqFItNlR5k4_0-86" value="" style="endArrow=classic;html=1;strokeWidth=3;opacity=50;" parent="1" edge="1">
          <mxGeometry width="50" height="50" relative="1" as="geometry">
            <mxPoint x="550.5" y="419.79999999999995" as="sourcePoint" />
            <mxPoint x="680.5" y="420" as="targetPoint" />
          </mxGeometry>
        </mxCell>
        <mxCell id="IrSjTnCQqFItNlR5k4_0-87" value="" style="endArrow=classic;html=1;strokeWidth=3;opacity=50;" parent="1" source="IrSjTnCQqFItNlR5k4_0-66" edge="1">
          <mxGeometry width="50" height="50" relative="1" as="geometry">
            <mxPoint x="690.5" y="410" as="sourcePoint" />
            <mxPoint x="700.5" y="350" as="targetPoint" />
          </mxGeometry>
        </mxCell>
        <mxCell id="IrSjTnCQqFItNlR5k4_0-88" value="" style="endArrow=classic;html=1;strokeWidth=3;opacity=50;entryX=0;entryY=1;entryDx=0;entryDy=0;" parent="1" source="IrSjTnCQqFItNlR5k4_0-58" target="IrSjTnCQqFItNlR5k4_0-48" edge="1">
          <mxGeometry width="50" height="50" relative="1" as="geometry">
            <mxPoint x="670.5" y="370" as="sourcePoint" />
            <mxPoint x="700.5" y="340" as="targetPoint" />
          </mxGeometry>
        </mxCell>
        <mxCell id="IrSjTnCQqFItNlR5k4_0-89" value="" style="endArrow=classic;html=1;strokeWidth=3;opacity=50;" parent="1" source="IrSjTnCQqFItNlR5k4_0-45" target="IrSjTnCQqFItNlR5k4_0-54" edge="1">
          <mxGeometry width="50" height="50" relative="1" as="geometry">
            <mxPoint x="540.5" y="390" as="sourcePoint" />
            <mxPoint x="590.5" y="340" as="targetPoint" />
          </mxGeometry>
        </mxCell>
        <mxCell id="IrSjTnCQqFItNlR5k4_0-90" value="" style="endArrow=classic;html=1;strokeWidth=3;opacity=50;entryX=0;entryY=0;entryDx=0;entryDy=0;" parent="1" source="IrSjTnCQqFItNlR5k4_0-37" target="IrSjTnCQqFItNlR5k4_0-51" edge="1">
          <mxGeometry width="50" height="50" relative="1" as="geometry">
            <mxPoint x="230.5" y="390" as="sourcePoint" />
            <mxPoint x="280.5" y="380" as="targetPoint" />
          </mxGeometry>
        </mxCell>
        <mxCell id="IrSjTnCQqFItNlR5k4_0-91" value="" style="endArrow=classic;html=1;strokeWidth=3;opacity=50;" parent="1" source="IrSjTnCQqFItNlR5k4_0-37" target="IrSjTnCQqFItNlR5k4_0-60" edge="1">
          <mxGeometry width="50" height="50" relative="1" as="geometry">
            <mxPoint x="240.49999999999375" y="363.99999999999164" as="sourcePoint" />
            <mxPoint x="264.5" y="396" as="targetPoint" />
          </mxGeometry>
        </mxCell>
        <mxCell id="IrSjTnCQqFItNlR5k4_0-92" value="" style="endArrow=classic;html=1;strokeWidth=3;opacity=50;exitX=1;exitY=0;exitDx=0;exitDy=0;" parent="1" source="IrSjTnCQqFItNlR5k4_0-53" target="IrSjTnCQqFItNlR5k4_0-43" edge="1">
          <mxGeometry width="50" height="50" relative="1" as="geometry">
            <mxPoint x="410.5" y="370" as="sourcePoint" />
            <mxPoint x="450.5" y="340" as="targetPoint" />
          </mxGeometry>
        </mxCell>
        <mxCell id="IrSjTnCQqFItNlR5k4_0-93" value="" style="endArrow=classic;html=1;strokeWidth=3;opacity=50;exitX=1;exitY=1;exitDx=0;exitDy=0;entryX=0;entryY=0.5;entryDx=0;entryDy=0;" parent="1" source="IrSjTnCQqFItNlR5k4_0-14" target="IrSjTnCQqFItNlR5k4_0-18" edge="1">
          <mxGeometry width="50" height="50" relative="1" as="geometry">
            <mxPoint x="210.5" y="170" as="sourcePoint" />
            <mxPoint x="260.5" y="120" as="targetPoint" />
          </mxGeometry>
        </mxCell>
        <mxCell id="IrSjTnCQqFItNlR5k4_0-94" value="" style="endArrow=classic;html=1;strokeWidth=3;opacity=50;" parent="1" target="IrSjTnCQqFItNlR5k4_0-15" edge="1">
          <mxGeometry width="50" height="50" relative="1" as="geometry">
            <mxPoint x="333.5" y="172" as="sourcePoint" />
            <mxPoint x="460.5" y="230" as="targetPoint" />
          </mxGeometry>
        </mxCell>
        <mxCell id="IrSjTnCQqFItNlR5k4_0-95" value="" style="endArrow=classic;html=1;strokeWidth=3;opacity=50;entryX=0.5;entryY=0;entryDx=0;entryDy=0;" parent="1" source="IrSjTnCQqFItNlR5k4_0-18" target="IrSjTnCQqFItNlR5k4_0-41" edge="1">
          <mxGeometry width="50" height="50" relative="1" as="geometry">
            <mxPoint x="390.5" y="260" as="sourcePoint" />
            <mxPoint x="440.5" y="210" as="targetPoint" />
          </mxGeometry>
        </mxCell>
        <mxCell id="IrSjTnCQqFItNlR5k4_0-96" value="" style="endArrow=classic;html=1;strokeWidth=3;opacity=50;entryX=0.5;entryY=1;entryDx=0;entryDy=0;" parent="1" target="IrSjTnCQqFItNlR5k4_0-20" edge="1">
          <mxGeometry width="50" height="50" relative="1" as="geometry">
            <mxPoint x="440.5" y="330" as="sourcePoint" />
            <mxPoint x="490.5" y="280" as="targetPoint" />
          </mxGeometry>
        </mxCell>
        <mxCell id="IrSjTnCQqFItNlR5k4_0-97" value="" style="endArrow=classic;html=1;strokeWidth=3;opacity=50;entryX=0.5;entryY=0;entryDx=0;entryDy=0;exitX=0.65;exitY=1.017;exitDx=0;exitDy=0;exitPerimeter=0;" parent="1" source="IrSjTnCQqFItNlR5k4_0-22" target="IrSjTnCQqFItNlR5k4_0-45" edge="1">
          <mxGeometry width="50" height="50" relative="1" as="geometry">
            <mxPoint x="520.4999999999999" y="330" as="sourcePoint" />
            <mxPoint x="540.5" y="270" as="targetPoint" />
          </mxGeometry>
        </mxCell>
        <mxCell id="IrSjTnCQqFItNlR5k4_0-98" value="" style="endArrow=classic;html=1;strokeWidth=3;opacity=50;entryX=0.5;entryY=0;entryDx=0;entryDy=0;exitX=0.65;exitY=1.017;exitDx=0;exitDy=0;exitPerimeter=0;" parent="1" edge="1">
          <mxGeometry width="50" height="50" relative="1" as="geometry">
            <mxPoint x="613.5" y="270.34000000000003" as="sourcePoint" />
            <mxPoint x="630.5" y="330" as="targetPoint" />
          </mxGeometry>
        </mxCell>
        <mxCell id="IrSjTnCQqFItNlR5k4_0-99" value="" style="endArrow=classic;html=1;strokeWidth=3;opacity=50;entryX=0.5;entryY=0;entryDx=0;entryDy=0;exitX=0.74;exitY=0.957;exitDx=0;exitDy=0;exitPerimeter=0;" parent="1" source="IrSjTnCQqFItNlR5k4_0-28" edge="1">
          <mxGeometry width="50" height="50" relative="1" as="geometry">
            <mxPoint x="730.5" y="270" as="sourcePoint" />
            <mxPoint x="757.5" y="329.66" as="targetPoint" />
          </mxGeometry>
        </mxCell>
        <mxCell id="IrSjTnCQqFItNlR5k4_0-100" value="" style="endArrow=classic;html=1;strokeWidth=3;opacity=50;exitX=1;exitY=0.5;exitDx=0;exitDy=0;" parent="1" edge="1">
          <mxGeometry width="50" height="50" relative="1" as="geometry">
            <mxPoint x="470.5" y="259.76" as="sourcePoint" />
            <mxPoint x="500.5" y="260" as="targetPoint" />
          </mxGeometry>
        </mxCell>
        <mxCell id="IrSjTnCQqFItNlR5k4_0-101" value="" style="endArrow=classic;html=1;strokeWidth=3;opacity=50;exitX=1;exitY=0.5;exitDx=0;exitDy=0;" parent="1" edge="1">
          <mxGeometry width="50" height="50" relative="1" as="geometry">
            <mxPoint x="520.5" y="259.76" as="sourcePoint" />
            <mxPoint x="550.5" y="260" as="targetPoint" />
          </mxGeometry>
        </mxCell>
        <mxCell id="IrSjTnCQqFItNlR5k4_0-102" value="" style="endArrow=classic;html=1;strokeWidth=3;opacity=50;exitX=1;exitY=0.5;exitDx=0;exitDy=0;" parent="1" edge="1">
          <mxGeometry width="50" height="50" relative="1" as="geometry">
            <mxPoint x="570.5" y="259.76" as="sourcePoint" />
            <mxPoint x="600.5" y="260" as="targetPoint" />
          </mxGeometry>
        </mxCell>
        <mxCell id="IrSjTnCQqFItNlR5k4_0-104" value="" style="endArrow=classic;html=1;strokeWidth=3;opacity=50;entryX=0.5;entryY=0;entryDx=0;entryDy=0;exitX=0;exitY=1;exitDx=0;exitDy=0;" parent="1" source="IrSjTnCQqFItNlR5k4_0-28" edge="1">
          <mxGeometry width="50" height="50" relative="1" as="geometry">
            <mxPoint x="678.3" y="270" as="sourcePoint" />
            <mxPoint x="700.5" y="330.52000000000004" as="targetPoint" />
          </mxGeometry>
        </mxCell>
        <mxCell id="IrSjTnCQqFItNlR5k4_0-105" value="" style="endArrow=classic;html=1;strokeWidth=3;opacity=50;entryX=0.5;entryY=1;entryDx=0;entryDy=0;" parent="1" target="IrSjTnCQqFItNlR5k4_0-16" edge="1">
          <mxGeometry width="50" height="50" relative="1" as="geometry">
            <mxPoint x="610.5" y="250" as="sourcePoint" />
            <mxPoint x="660.5" y="200" as="targetPoint" />
          </mxGeometry>
        </mxCell>
        <mxCell id="IrSjTnCQqFItNlR5k4_0-107" value="" style="endArrow=classic;html=1;strokeWidth=3;opacity=50;entryX=0.5;entryY=1;entryDx=0;entryDy=0;" parent="1" target="IrSjTnCQqFItNlR5k4_0-17" edge="1">
          <mxGeometry width="50" height="50" relative="1" as="geometry">
            <mxPoint x="730.5" y="250" as="sourcePoint" />
            <mxPoint x="780.5" y="200" as="targetPoint" />
          </mxGeometry>
        </mxCell>
        <mxCell id="IrSjTnCQqFItNlR5k4_0-108" value="feature 1.5" style="text;html=1;align=center;verticalAlign=middle;resizable=0;points=[];autosize=1;" parent="1" vertex="1">
          <mxGeometry x="39.5" y="431" width="70" height="20" as="geometry" />
        </mxCell>
        <mxCell id="IrSjTnCQqFItNlR5k4_0-109" value="feature 1.4" style="text;html=1;align=center;verticalAlign=middle;resizable=0;points=[];autosize=1;" parent="1" vertex="1">
          <mxGeometry x="39.5" y="390" width="70" height="20" as="geometry" />
        </mxCell>
        <mxCell id="IrSjTnCQqFItNlR5k4_0-110" value="TImeline" style="text;html=1;align=center;verticalAlign=middle;resizable=0;points=[];autosize=1;" parent="1" vertex="1">
          <mxGeometry x="39.5" y="494" width="60" height="20" as="geometry" />
        </mxCell>
        <mxCell id="IrSjTnCQqFItNlR5k4_0-111" value="develop" style="text;html=1;align=center;verticalAlign=middle;resizable=0;points=[];autosize=1;" parent="1" vertex="1">
          <mxGeometry x="44.5" y="350" width="60" height="20" as="geometry" />
        </mxCell>
        <mxCell id="IrSjTnCQqFItNlR5k4_0-112" value="release" style="text;html=1;align=center;verticalAlign=middle;resizable=0;points=[];autosize=1;" parent="1" vertex="1">
          <mxGeometry x="44.5" y="270" width="50" height="20" as="geometry" />
        </mxCell>
        <mxCell id="IrSjTnCQqFItNlR5k4_0-113" value="release 1.4" style="text;html=1;align=center;verticalAlign=middle;resizable=0;points=[];autosize=1;" parent="1" vertex="1">
          <mxGeometry x="475.5" y="220" width="70" height="20" as="geometry" />
        </mxCell>
        <mxCell id="IrSjTnCQqFItNlR5k4_0-114" value="release 1.5" style="text;html=1;align=center;verticalAlign=middle;resizable=0;points=[];autosize=1;" parent="1" vertex="1">
          <mxGeometry x="750.5" y="230" width="70" height="20" as="geometry" />
        </mxCell>
        <mxCell id="IrSjTnCQqFItNlR5k4_0-115" value="hotfix" style="text;html=1;align=center;verticalAlign=middle;resizable=0;points=[];autosize=1;" parent="1" vertex="1">
          <mxGeometry x="49.5" y="190" width="40" height="20" as="geometry" />
        </mxCell>
        <mxCell id="IrSjTnCQqFItNlR5k4_0-116" value="master" style="text;html=1;align=center;verticalAlign=middle;resizable=0;points=[];autosize=1;" parent="1" vertex="1">
          <mxGeometry x="44.5" y="120" width="50" height="20" as="geometry" />
        </mxCell>
        <mxCell id="IrSjTnCQqFItNlR5k4_0-117" value="tag:1.3" style="text;html=1;align=center;verticalAlign=middle;resizable=0;points=[];autosize=1;" parent="1" vertex="1">
          <mxGeometry x="160.5" y="80" width="50" height="20" as="geometry" />
        </mxCell>
        <mxCell id="IrSjTnCQqFItNlR5k4_0-118" value="tag1.3.1" style="text;html=1;align=center;verticalAlign=middle;resizable=0;points=[];autosize=1;" parent="1" vertex="1">
          <mxGeometry x="380.5" y="80" width="60" height="20" as="geometry" />
        </mxCell>
        <mxCell id="IrSjTnCQqFItNlR5k4_0-119" value="tag1.4" style="text;html=1;align=center;verticalAlign=middle;resizable=0;points=[];autosize=1;" parent="1" vertex="1">
          <mxGeometry x="675.5" y="80" width="50" height="20" as="geometry" />
        </mxCell>
        <mxCell id="IrSjTnCQqFItNlR5k4_0-120" value="tag1.5" style="text;html=1;align=center;verticalAlign=middle;resizable=0;points=[];autosize=1;" parent="1" vertex="1">
          <mxGeometry x="770.5" y="80" width="50" height="20" as="geometry" />
        </mxCell>
        <mxCell id="IrSjTnCQqFItNlR5k4_0-121" value="bugfix" style="text;html=1;align=center;verticalAlign=middle;resizable=0;points=[];autosize=1;" parent="1" vertex="1">
          <mxGeometry x="535.5" y="280" width="50" height="20" as="geometry" />
        </mxCell>
        <mxCell id="IrSjTnCQqFItNlR5k4_0-242" value="" style="endArrow=classic;html=1;opacity=50;strokeWidth=10;" parent="1" edge="1">
          <mxGeometry width="50" height="50" relative="1" as="geometry">
            <mxPoint x="45" y="1030" as="sourcePoint" />
            <mxPoint x="805" y="1030" as="targetPoint" />
          </mxGeometry>
        </mxCell>
        <mxCell id="IrSjTnCQqFItNlR5k4_0-343" value="" style="endArrow=none;dashed=1;html=1;strokeWidth=3;opacity=50;" parent="1" source="IrSjTnCQqFItNlR5k4_0-373" edge="1">
          <mxGeometry width="50" height="50" relative="1" as="geometry">
            <mxPoint x="40" y="650" as="sourcePoint" />
            <mxPoint x="802.3529411764706" y="650" as="targetPoint" />
          </mxGeometry>
        </mxCell>
        <mxCell id="IrSjTnCQqFItNlR5k4_0-344" value="" style="endArrow=none;dashed=1;html=1;strokeWidth=3;opacity=50;" parent="1" source="IrSjTnCQqFItNlR5k4_0-376" edge="1">
          <mxGeometry width="50" height="50" relative="1" as="geometry">
            <mxPoint x="39.000000000000114" y="730" as="sourcePoint" />
            <mxPoint x="801.3529411764707" y="730" as="targetPoint" />
          </mxGeometry>
        </mxCell>
        <mxCell id="IrSjTnCQqFItNlR5k4_0-345" value="" style="endArrow=none;dashed=1;html=1;strokeWidth=3;opacity=50;" parent="1" source="IrSjTnCQqFItNlR5k4_0-365" edge="1">
          <mxGeometry width="50" height="50" relative="1" as="geometry">
            <mxPoint x="39.000000000000114" y="810" as="sourcePoint" />
            <mxPoint x="801.3529411764707" y="810" as="targetPoint" />
          </mxGeometry>
        </mxCell>
        <mxCell id="IrSjTnCQqFItNlR5k4_0-346" value="" style="endArrow=none;dashed=1;html=1;strokeWidth=3;opacity=50;" parent="1" source="IrSjTnCQqFItNlR5k4_0-363" edge="1">
          <mxGeometry width="50" height="50" relative="1" as="geometry">
            <mxPoint x="39.000000000000114" y="890" as="sourcePoint" />
            <mxPoint x="801.3529411764707" y="890" as="targetPoint" />
          </mxGeometry>
        </mxCell>
        <mxCell id="IrSjTnCQqFItNlR5k4_0-347" value="" style="endArrow=none;dashed=1;html=1;strokeWidth=3;opacity=50;" parent="1" source="IrSjTnCQqFItNlR5k4_0-354" target="IrSjTnCQqFItNlR5k4_0-348" edge="1">
          <mxGeometry width="50" height="50" relative="1" as="geometry">
            <mxPoint x="39.000000000000114" y="970" as="sourcePoint" />
            <mxPoint x="801.3529411764707" y="970" as="targetPoint" />
          </mxGeometry>
        </mxCell>
        <mxCell id="IrSjTnCQqFItNlR5k4_0-348" value="Text" style="text;html=1;strokeColor=none;fillColor=none;align=center;verticalAlign=middle;whiteSpace=wrap;rounded=0;" parent="1" vertex="1">
          <mxGeometry x="781.3529411764707" y="959.9999999999998" width="40" height="20" as="geometry" />
        </mxCell>
        <mxCell id="IrSjTnCQqFItNlR5k4_0-349" value="active_develop/1.5 (develop)" style="text;html=1;align=center;verticalAlign=middle;resizable=0;points=[];autosize=1;" parent="1" vertex="1">
          <mxGeometry x="39.5" y="620" width="170" height="20" as="geometry" />
        </mxCell>
        <mxCell id="IrSjTnCQqFItNlR5k4_0-350" value="feature/1.5 (master)" style="text;html=1;align=center;verticalAlign=middle;resizable=0;points=[];autosize=1;" parent="1" vertex="1">
          <mxGeometry x="39.5" y="700" width="120" height="20" as="geometry" />
        </mxCell>
        <mxCell id="IrSjTnCQqFItNlR5k4_0-351" value="repo&#39;s develop(PR-reviewed)" style="text;html=1;align=center;verticalAlign=middle;resizable=0;points=[];autosize=1;" parent="1" vertex="1">
          <mxGeometry x="85" y="780" width="170" height="20" as="geometry" />
        </mxCell>
        <mxCell id="IrSjTnCQqFItNlR5k4_0-352" value="feature/1.4(master)" style="text;html=1;align=center;verticalAlign=middle;resizable=0;points=[];autosize=1;" parent="1" vertex="1">
          <mxGeometry x="39.5" y="860" width="120" height="20" as="geometry" />
        </mxCell>
        <mxCell id="IrSjTnCQqFItNlR5k4_0-353" value="active_develop/1.4(develop)" style="text;html=1;align=center;verticalAlign=middle;resizable=0;points=[];autosize=1;" parent="1" vertex="1">
          <mxGeometry x="35" y="940" width="170" height="20" as="geometry" />
        </mxCell>
        <mxCell id="IrSjTnCQqFItNlR5k4_0-354" value="" style="ellipse;whiteSpace=wrap;html=1;aspect=fixed;fillColor=#b0e3e6;strokeColor=#0e8088;" parent="1" vertex="1">
          <mxGeometry x="270" y="960" width="20" height="20" as="geometry" />
        </mxCell>
        <mxCell id="IrSjTnCQqFItNlR5k4_0-355" value="" style="endArrow=none;dashed=1;html=1;strokeWidth=3;opacity=50;" parent="1" target="IrSjTnCQqFItNlR5k4_0-354" edge="1">
          <mxGeometry width="50" height="50" relative="1" as="geometry">
            <mxPoint x="39" y="969.9999999999998" as="sourcePoint" />
            <mxPoint x="781.3529411764707" y="969.9999999999998" as="targetPoint" />
          </mxGeometry>
        </mxCell>
        <mxCell id="IrSjTnCQqFItNlR5k4_0-356" value="" style="ellipse;whiteSpace=wrap;html=1;aspect=fixed;fillColor=#b0e3e6;strokeColor=#0e8088;" parent="1" vertex="1">
          <mxGeometry x="330" y="920" width="20" height="20" as="geometry" />
        </mxCell>
        <mxCell id="IrSjTnCQqFItNlR5k4_0-357" value="" style="ellipse;whiteSpace=wrap;html=1;aspect=fixed;fillColor=#b0e3e6;strokeColor=#0e8088;" parent="1" vertex="1">
          <mxGeometry x="400" y="960" width="20" height="20" as="geometry" />
        </mxCell>
        <mxCell id="IrSjTnCQqFItNlR5k4_0-360" value="" style="endArrow=classic;html=1;strokeWidth=3;opacity=50;exitX=1;exitY=0;exitDx=0;exitDy=0;" parent="1" source="IrSjTnCQqFItNlR5k4_0-354" target="IrSjTnCQqFItNlR5k4_0-356" edge="1">
          <mxGeometry width="50" height="50" relative="1" as="geometry">
            <mxPoint x="290" y="960" as="sourcePoint" />
            <mxPoint x="330" y="920" as="targetPoint" />
          </mxGeometry>
        </mxCell>
        <mxCell id="IrSjTnCQqFItNlR5k4_0-361" value="" style="endArrow=classic;html=1;strokeWidth=3;opacity=50;exitX=1;exitY=0.5;exitDx=0;exitDy=0;entryX=0;entryY=0;entryDx=0;entryDy=0;" parent="1" source="IrSjTnCQqFItNlR5k4_0-356" target="IrSjTnCQqFItNlR5k4_0-357" edge="1">
          <mxGeometry width="50" height="50" relative="1" as="geometry">
            <mxPoint x="360" y="900" as="sourcePoint" />
            <mxPoint x="410" y="850" as="targetPoint" />
          </mxGeometry>
        </mxCell>
        <mxCell id="IrSjTnCQqFItNlR5k4_0-362" value="" style="endArrow=classic;html=1;strokeWidth=3;opacity=50;exitX=1;exitY=0;exitDx=0;exitDy=0;" parent="1" source="IrSjTnCQqFItNlR5k4_0-356" edge="1">
          <mxGeometry width="50" height="50" relative="1" as="geometry">
            <mxPoint x="360" y="900" as="sourcePoint" />
            <mxPoint x="450" y="890" as="targetPoint" />
          </mxGeometry>
        </mxCell>
        <mxCell id="IrSjTnCQqFItNlR5k4_0-363" value="" style="ellipse;whiteSpace=wrap;html=1;aspect=fixed;fillColor=#fad7ac;strokeColor=#b46504;" parent="1" vertex="1">
          <mxGeometry x="450" y="880" width="20" height="20" as="geometry" />
        </mxCell>
        <mxCell id="IrSjTnCQqFItNlR5k4_0-364" value="" style="endArrow=none;dashed=1;html=1;strokeWidth=3;opacity=50;" parent="1" target="IrSjTnCQqFItNlR5k4_0-363" edge="1">
          <mxGeometry width="50" height="50" relative="1" as="geometry">
            <mxPoint x="39.000000000000114" y="890" as="sourcePoint" />
            <mxPoint x="801.3529411764707" y="890" as="targetPoint" />
          </mxGeometry>
        </mxCell>
        <mxCell id="IrSjTnCQqFItNlR5k4_0-365" value="" style="ellipse;whiteSpace=wrap;html=1;aspect=fixed;fillColor=#fad9d5;strokeColor=#ae4132;" parent="1" vertex="1">
          <mxGeometry x="545" y="800" width="20" height="20" as="geometry" />
        </mxCell>
        <mxCell id="IrSjTnCQqFItNlR5k4_0-366" value="" style="endArrow=none;dashed=1;html=1;strokeWidth=3;opacity=50;" parent="1" source="IrSjTnCQqFItNlR5k4_0-378" target="IrSjTnCQqFItNlR5k4_0-365" edge="1">
          <mxGeometry width="50" height="50" relative="1" as="geometry">
            <mxPoint x="39.000000000000114" y="810" as="sourcePoint" />
            <mxPoint x="801.3529411764707" y="810" as="targetPoint" />
          </mxGeometry>
        </mxCell>
        <mxCell id="IrSjTnCQqFItNlR5k4_0-367" value="mvn -Dstart-release -Dfinish-release -DmasterBranchName=&#39;feature/1.5&#39; -DdevelopBranchName=&#39;active_develop/1.5&#39;" style="text;html=1;align=center;verticalAlign=middle;resizable=0;points=[];autosize=1;rounded=0;strokeColor=#000000;" parent="1" vertex="1">
          <mxGeometry x="40" y="1000" width="640" height="20" as="geometry" />
        </mxCell>
        <mxCell id="IrSjTnCQqFItNlR5k4_0-369" value="" style="endArrow=classic;html=1;strokeWidth=3;opacity=50;entryX=0;entryY=1;entryDx=0;entryDy=0;fillColor=#fad9d5;strokeColor=#ae4132;" parent="1" target="IrSjTnCQqFItNlR5k4_0-365" edge="1">
          <mxGeometry width="50" height="50" relative="1" as="geometry">
            <mxPoint x="470" y="880" as="sourcePoint" />
            <mxPoint x="520" y="830" as="targetPoint" />
          </mxGeometry>
        </mxCell>
        <mxCell id="IrSjTnCQqFItNlR5k4_0-370" value="PR" style="text;html=1;align=center;verticalAlign=middle;resizable=0;points=[];autosize=1;" parent="1" vertex="1">
          <mxGeometry x="510" y="840" width="30" height="20" as="geometry" />
        </mxCell>
        <mxCell id="IrSjTnCQqFItNlR5k4_0-371" value="" style="ellipse;whiteSpace=wrap;html=1;aspect=fixed;fillColor=#b0e3e6;strokeColor=#0e8088;" parent="1" vertex="1">
          <mxGeometry x="180" y="640" width="20" height="20" as="geometry" />
        </mxCell>
        <mxCell id="IrSjTnCQqFItNlR5k4_0-372" value="" style="endArrow=none;dashed=1;html=1;strokeWidth=3;opacity=50;" parent="1" target="IrSjTnCQqFItNlR5k4_0-371" edge="1">
          <mxGeometry width="50" height="50" relative="1" as="geometry">
            <mxPoint x="40" y="650" as="sourcePoint" />
            <mxPoint x="802.3529411764707" y="650" as="targetPoint" />
          </mxGeometry>
        </mxCell>
        <mxCell id="IrSjTnCQqFItNlR5k4_0-373" value="" style="ellipse;whiteSpace=wrap;html=1;aspect=fixed;fillColor=#b0e3e6;strokeColor=#0e8088;" parent="1" vertex="1">
          <mxGeometry x="290" y="640" width="20" height="20" as="geometry" />
        </mxCell>
        <mxCell id="IrSjTnCQqFItNlR5k4_0-374" value="" style="endArrow=none;dashed=1;html=1;strokeWidth=3;opacity=50;" parent="1" source="IrSjTnCQqFItNlR5k4_0-371" target="IrSjTnCQqFItNlR5k4_0-373" edge="1">
          <mxGeometry width="50" height="50" relative="1" as="geometry">
            <mxPoint x="200" y="650" as="sourcePoint" />
            <mxPoint x="802.3529411764707" y="650" as="targetPoint" />
          </mxGeometry>
        </mxCell>
        <mxCell id="IrSjTnCQqFItNlR5k4_0-375" value="" style="ellipse;whiteSpace=wrap;html=1;aspect=fixed;fillColor=#b0e3e6;strokeColor=#0e8088;" parent="1" vertex="1">
          <mxGeometry x="235" y="680" width="20" height="20" as="geometry" />
        </mxCell>
        <mxCell id="IrSjTnCQqFItNlR5k4_0-376" value="" style="ellipse;whiteSpace=wrap;html=1;aspect=fixed;fillColor=#fad7ac;strokeColor=#b46504;" parent="1" vertex="1">
          <mxGeometry x="330" y="720" width="20" height="20" as="geometry" />
        </mxCell>
        <mxCell id="IrSjTnCQqFItNlR5k4_0-377" value="" style="endArrow=none;dashed=1;html=1;strokeWidth=3;opacity=50;" parent="1" target="IrSjTnCQqFItNlR5k4_0-376" edge="1">
          <mxGeometry width="50" height="50" relative="1" as="geometry">
            <mxPoint x="39" y="730" as="sourcePoint" />
            <mxPoint x="801.3529411764707" y="730" as="targetPoint" />
          </mxGeometry>
        </mxCell>
        <mxCell id="IrSjTnCQqFItNlR5k4_0-378" value="" style="ellipse;whiteSpace=wrap;html=1;aspect=fixed;fillColor=#fad9d5;strokeColor=#ae4132;" parent="1" vertex="1">
          <mxGeometry x="420" y="800" width="20" height="20" as="geometry" />
        </mxCell>
        <mxCell id="IrSjTnCQqFItNlR5k4_0-379" value="" style="endArrow=none;dashed=1;html=1;strokeWidth=3;opacity=50;" parent="1" source="IrSjTnCQqFItNlR5k4_0-385" target="IrSjTnCQqFItNlR5k4_0-378" edge="1">
          <mxGeometry width="50" height="50" relative="1" as="geometry">
            <mxPoint x="39" y="810" as="sourcePoint" />
            <mxPoint x="545" y="810" as="targetPoint" />
          </mxGeometry>
        </mxCell>
        <mxCell id="IrSjTnCQqFItNlR5k4_0-380" value="" style="endArrow=classic;html=1;strokeWidth=3;opacity=50;exitX=1;exitY=1;exitDx=0;exitDy=0;entryX=0;entryY=0;entryDx=0;entryDy=0;" parent="1" source="IrSjTnCQqFItNlR5k4_0-371" target="IrSjTnCQqFItNlR5k4_0-375" edge="1">
          <mxGeometry width="50" height="50" relative="1" as="geometry">
            <mxPoint x="380" y="790" as="sourcePoint" />
            <mxPoint x="430" y="740" as="targetPoint" />
          </mxGeometry>
        </mxCell>
        <mxCell id="IrSjTnCQqFItNlR5k4_0-381" value="" style="endArrow=classic;html=1;strokeWidth=3;opacity=50;exitX=1;exitY=0;exitDx=0;exitDy=0;entryX=0;entryY=1;entryDx=0;entryDy=0;" parent="1" source="IrSjTnCQqFItNlR5k4_0-375" target="IrSjTnCQqFItNlR5k4_0-373" edge="1">
          <mxGeometry width="50" height="50" relative="1" as="geometry">
            <mxPoint x="380" y="790" as="sourcePoint" />
            <mxPoint x="430" y="740" as="targetPoint" />
          </mxGeometry>
        </mxCell>
        <mxCell id="IrSjTnCQqFItNlR5k4_0-382" value="" style="endArrow=classic;html=1;strokeWidth=3;opacity=50;entryX=0;entryY=0;entryDx=0;entryDy=0;exitX=1;exitY=1;exitDx=0;exitDy=0;" parent="1" source="IrSjTnCQqFItNlR5k4_0-375" target="IrSjTnCQqFItNlR5k4_0-376" edge="1">
          <mxGeometry width="50" height="50" relative="1" as="geometry">
            <mxPoint x="255" y="690" as="sourcePoint" />
            <mxPoint x="430" y="740" as="targetPoint" />
          </mxGeometry>
        </mxCell>
        <mxCell id="IrSjTnCQqFItNlR5k4_0-384" value="" style="endArrow=classic;html=1;strokeWidth=3;opacity=50;exitX=1;exitY=1;exitDx=0;exitDy=0;entryX=0;entryY=0;entryDx=0;entryDy=0;fillColor=#f8cecc;strokeColor=#b85450;" parent="1" source="IrSjTnCQqFItNlR5k4_0-376" target="IrSjTnCQqFItNlR5k4_0-378" edge="1">
          <mxGeometry width="50" height="50" relative="1" as="geometry">
            <mxPoint x="380" y="790" as="sourcePoint" />
            <mxPoint x="430" y="740" as="targetPoint" />
          </mxGeometry>
        </mxCell>
        <mxCell id="IrSjTnCQqFItNlR5k4_0-385" value="" style="ellipse;whiteSpace=wrap;html=1;aspect=fixed;fillColor=#fad9d5;strokeColor=#ae4132;" parent="1" vertex="1">
          <mxGeometry x="35" y="800" width="20" height="20" as="geometry" />
        </mxCell>
        <mxCell id="IrSjTnCQqFItNlR5k4_0-386" value="" style="endArrow=none;dashed=1;html=1;strokeWidth=3;opacity=50;" parent="1" target="IrSjTnCQqFItNlR5k4_0-385" edge="1">
          <mxGeometry width="50" height="50" relative="1" as="geometry">
            <mxPoint x="39" y="810" as="sourcePoint" />
            <mxPoint x="420" y="810" as="targetPoint" />
          </mxGeometry>
        </mxCell>
        <mxCell id="IrSjTnCQqFItNlR5k4_0-387" value="" style="endArrow=classic;html=1;strokeWidth=3;opacity=50;exitX=1;exitY=0;exitDx=0;exitDy=0;entryX=0.5;entryY=1;entryDx=0;entryDy=0;" parent="1" source="IrSjTnCQqFItNlR5k4_0-385" target="IrSjTnCQqFItNlR5k4_0-371" edge="1">
          <mxGeometry width="50" height="50" relative="1" as="geometry">
            <mxPoint x="380" y="790" as="sourcePoint" />
            <mxPoint x="430" y="740" as="targetPoint" />
          </mxGeometry>
        </mxCell>
        <mxCell id="IrSjTnCQqFItNlR5k4_0-388" value="" style="endArrow=classic;html=1;strokeWidth=3;opacity=50;exitX=1;exitY=1;exitDx=0;exitDy=0;entryX=0;entryY=0;entryDx=0;entryDy=0;" parent="1" source="IrSjTnCQqFItNlR5k4_0-385" target="IrSjTnCQqFItNlR5k4_0-354" edge="1">
          <mxGeometry width="50" height="50" relative="1" as="geometry">
            <mxPoint x="380" y="790" as="sourcePoint" />
            <mxPoint x="430" y="740" as="targetPoint" />
          </mxGeometry>
        </mxCell>
        <mxCell id="IrSjTnCQqFItNlR5k4_0-389" value="merge confilict" style="text;html=1;align=center;verticalAlign=middle;resizable=0;points=[];autosize=1;" parent="1" vertex="1">
          <mxGeometry x="440" y="780" width="90" height="20" as="geometry" />
        </mxCell>
        <mxCell id="shj5jVNcUeeYBscxxg9t-1" value="" style="endArrow=classic;html=1;" edge="1" parent="1">
          <mxGeometry width="50" height="50" relative="1" as="geometry">
            <mxPoint x="280" y="998" as="sourcePoint" />
            <mxPoint x="280" y="980" as="targetPoint" />
          </mxGeometry>
        </mxCell>
        <mxCell id="shj5jVNcUeeYBscxxg9t-3" value="ephemeral (release)&amp;nbsp;" style="text;html=1;strokeColor=#000000;fillColor=none;align=center;verticalAlign=middle;whiteSpace=wrap;rounded=0;" vertex="1" parent="1">
          <mxGeometry x="325" y="675" width="65" height="30" as="geometry" />
        </mxCell>
        <mxCell id="shj5jVNcUeeYBscxxg9t-4" value="" style="endArrow=classic;html=1;" edge="1" parent="1">
          <mxGeometry width="50" height="50" relative="1" as="geometry">
            <mxPoint x="325" y="689.5" as="sourcePoint" />
            <mxPoint x="255" y="689.5" as="targetPoint" />
          </mxGeometry>
        </mxCell>
        <mxCell id="shj5jVNcUeeYBscxxg9t-5" value="PR" style="text;html=1;align=center;verticalAlign=middle;resizable=0;points=[];autosize=1;" vertex="1" parent="1">
          <mxGeometry x="350" y="760" width="30" height="20" as="geometry" />
        </mxCell>
        <mxCell id="shj5jVNcUeeYBscxxg9t-7" value="IF YOU CAN ARRANGE 1.5 RELEASE BRANCH AFTER 1.4 DEVELOPING &amp;amp; BUG FIX" style="text;html=1;align=center;verticalAlign=middle;resizable=0;points=[];autosize=1;strokeColor=#000000;" vertex="1" parent="1">
          <mxGeometry x="285.5" y="500" width="480" height="20" as="geometry" />
        </mxCell>
        <mxCell id="shj5jVNcUeeYBscxxg9t-10" value="" style="shape=flexArrow;endArrow=classic;html=1;opacity=50;exitX=0.523;exitY=-0.145;exitDx=0;exitDy=0;exitPerimeter=0;" edge="1" parent="1" source="shj5jVNcUeeYBscxxg9t-7">
          <mxGeometry width="50" height="50" relative="1" as="geometry">
            <mxPoint x="570.5" y="500" as="sourcePoint" />
            <mxPoint x="710.5" y="260" as="targetPoint" />
          </mxGeometry>
        </mxCell>
        <mxCell id="shj5jVNcUeeYBscxxg9t-11" value="IF WE DON&#39;T KNOW WHICH ONE WILL RELEASE FIRST" style="text;html=1;strokeColor=#000000;fillColor=none;align=center;verticalAlign=middle;whiteSpace=wrap;rounded=0;" vertex="1" parent="1">
          <mxGeometry x="99" y="1060" width="570" height="20" as="geometry" />
        </mxCell>
        <mxCell id="shj5jVNcUeeYBscxxg9t-12" value="" style="shape=flexArrow;endArrow=classic;html=1;opacity=50;exitX=0.162;exitY=0.065;exitDx=0;exitDy=0;exitPerimeter=0;" edge="1" parent="1" source="shj5jVNcUeeYBscxxg9t-11">
          <mxGeometry width="50" height="50" relative="1" as="geometry">
            <mxPoint x="360" y="1100" as="sourcePoint" />
            <mxPoint x="330" y="740" as="targetPoint" />
          </mxGeometry>
        </mxCell>
        <mxCell id="shj5jVNcUeeYBscxxg9t-14" value="&lt;h1&gt;Multiple hotfix/release&lt;/h1&gt;&lt;blockquote style=&quot;box-sizing: border-box ; margin: 0px 0px 16px ; padding: 0px 1em ; border-left: 0.25em solid rgb(223 , 226 , 229) ; font-family: , &amp;#34;blinkmacsystemfont&amp;#34; , &amp;#34;segoe ui&amp;#34; , &amp;#34;helvetica&amp;#34; , &amp;#34;arial&amp;#34; , sans-serif , &amp;#34;apple color emoji&amp;#34; , &amp;#34;segoe ui emoji&amp;#34; ; font-size: 14px&quot;&gt;&lt;p style=&quot;box-sizing: border-box ; margin-top: 0px ; margin-bottom: 0px&quot;&gt;When finishing a release/hotfix branch, we should merge changes into master and develop (like regular), but additionally merge that release/hotfix branch into&amp;nbsp;&lt;span style=&quot;box-sizing: border-box ; font-weight: 600&quot;&gt;every other existing release/hotfix branch&lt;/span&gt;&amp;nbsp;too.&lt;/p&gt;&lt;/blockquote&gt;&lt;p style=&quot;box-sizing: border-box ; margin-top: 0px ; font-family: , &amp;#34;blinkmacsystemfont&amp;#34; , &amp;#34;segoe ui&amp;#34; , &amp;#34;helvetica&amp;#34; , &amp;#34;arial&amp;#34; , sans-serif , &amp;#34;apple color emoji&amp;#34; , &amp;#34;segoe ui emoji&amp;#34; ; font-size: 14px ; margin-bottom: 0px&quot;&gt;Note that this may well become unwieldy quickly if there are lots of concurrent release/hotfix branches. If there exist&amp;nbsp;&lt;em style=&quot;box-sizing: border-box&quot;&gt;n&lt;/em&gt;&amp;nbsp;release and&amp;nbsp;&lt;em style=&quot;box-sizing: border-box&quot;&gt;m&lt;/em&gt;&amp;nbsp;hotfix branches, this implies 2 +&amp;nbsp;&lt;em style=&quot;box-sizing: border-box&quot;&gt;n&lt;/em&gt;&amp;nbsp;+&amp;nbsp;&lt;em style=&quot;box-sizing: border-box&quot;&gt;m&lt;/em&gt;&amp;nbsp;- 1 merges.&lt;/p&gt;&lt;p style=&quot;box-sizing: border-box ; margin-top: 0px ; font-family: , &amp;#34;blinkmacsystemfont&amp;#34; , &amp;#34;segoe ui&amp;#34; , &amp;#34;helvetica&amp;#34; , &amp;#34;arial&amp;#34; , sans-serif , &amp;#34;apple color emoji&amp;#34; , &amp;#34;segoe ui emoji&amp;#34; ; font-size: 14px ; margin-bottom: 0px&quot;&gt;&lt;a href=&quot;https://github.com/nvie/gitflow/issues/3&quot;&gt;https://github.com/nvie/gitflow/issues/3&lt;/a&gt;&lt;br&gt;&lt;/p&gt;" style="text;html=1;strokeColor=none;fillColor=none;spacing=5;spacingTop=-20;whiteSpace=wrap;overflow=hidden;rounded=0;" vertex="1" parent="1">
          <mxGeometry x="880" y="20" width="600" height="180" as="geometry" />
        </mxCell>
        <mxCell id="shj5jVNcUeeYBscxxg9t-15" value="&lt;h1&gt;When Start a release branch&lt;/h1&gt;&lt;span style=&quot;font-family: &amp;#34;titillium web&amp;#34; , &amp;#34;helvetica neue&amp;#34; , &amp;#34;helvetica neue&amp;#34; , &amp;#34;arial&amp;#34; , sans-serif ; font-size: 18px&quot;&gt;The key moment to branch off a new release branch from&amp;nbsp;&lt;/span&gt;&lt;code style=&quot;margin: 0px 2px 0px 3px ; padding: 0px ; box-sizing: border-box ; letter-spacing: -0.02em ; font-family: &amp;#34;inconsolata&amp;#34; , &amp;#34;monaco&amp;#34; , &amp;#34;menlo&amp;#34; , &amp;#34;consolas&amp;#34; , &amp;#34;courier new&amp;#34; , monospace ; font-size: 18px&quot;&gt;develop&lt;/code&gt;&lt;span style=&quot;font-family: &amp;#34;titillium web&amp;#34; , &amp;#34;helvetica neue&amp;#34; , &amp;#34;helvetica neue&amp;#34; , &amp;#34;arial&amp;#34; , sans-serif ; font-size: 18px&quot;&gt;&amp;nbsp;is when develop (almost) reflects the desired state of the new release.&amp;nbsp;At least all features that are targeted for the release-to-be-built must be merged in to&amp;nbsp;&lt;/span&gt;&lt;code style=&quot;margin: 0px 2px 0px 3px ; padding: 0px ; box-sizing: border-box ; letter-spacing: -0.02em ; font-family: &amp;#34;inconsolata&amp;#34; , &amp;#34;monaco&amp;#34; , &amp;#34;menlo&amp;#34; , &amp;#34;consolas&amp;#34; , &amp;#34;courier new&amp;#34; , monospace ; font-size: 18px&quot;&gt;develop&lt;/code&gt;&lt;span style=&quot;font-family: &amp;#34;titillium web&amp;#34; , &amp;#34;helvetica neue&amp;#34; , &amp;#34;helvetica neue&amp;#34; , &amp;#34;arial&amp;#34; , sans-serif ; font-size: 18px&quot;&gt;&amp;nbsp;at this point in time. All features targeted at future releases may not—they must wait until after the release branch is branched off.&amp;nbsp;&lt;/span&gt;&lt;a href=&quot;https://nvie.com/posts/a-successful-git-branching-model/&quot;&gt;https://nvie.com/posts/a-successful-git-branching-model/&lt;/a&gt;" style="text;html=1;strokeColor=none;fillColor=none;spacing=5;spacingTop=-20;whiteSpace=wrap;overflow=hidden;rounded=0;" vertex="1" parent="1">
          <mxGeometry x="880" y="210" width="600" height="180" as="geometry" />
        </mxCell>
        <mxCell id="shj5jVNcUeeYBscxxg9t-16" value="ephemeral (release)&amp;nbsp;" style="text;html=1;strokeColor=#000000;fillColor=none;align=center;verticalAlign=middle;whiteSpace=wrap;rounded=0;" vertex="1" parent="1">
          <mxGeometry x="427.5" y="915" width="65" height="30" as="geometry" />
        </mxCell>
        <mxCell id="shj5jVNcUeeYBscxxg9t-17" value="" style="endArrow=classic;html=1;" edge="1" parent="1">
          <mxGeometry width="50" height="50" relative="1" as="geometry">
            <mxPoint x="425" y="929.5" as="sourcePoint" />
            <mxPoint x="355" y="929.5" as="targetPoint" />
          </mxGeometry>
        </mxCell>
        <mxCell id="shj5jVNcUeeYBscxxg9t-18" value="&lt;b&gt;&lt;i&gt;&lt;font style=&quot;font-size: 24px&quot;&gt;Our Gitflow utilities working logic&lt;/font&gt;&lt;/i&gt;&lt;/b&gt;" style="text;html=1;strokeColor=none;fillColor=none;align=center;verticalAlign=middle;whiteSpace=wrap;rounded=0;" vertex="1" parent="1">
          <mxGeometry x="190" y="580" width="506" height="20" as="geometry" />
        </mxCell>
        <mxCell id="shj5jVNcUeeYBscxxg9t-19" value="&lt;b&gt;&lt;i&gt;&lt;font style=&quot;font-size: 24px&quot;&gt;Classic gitflow working logic&lt;/font&gt;&lt;/i&gt;&lt;/b&gt;" style="text;html=1;strokeColor=none;fillColor=none;align=center;verticalAlign=middle;whiteSpace=wrap;rounded=0;" vertex="1" parent="1">
          <mxGeometry x="174.5" y="30" width="506" height="20" as="geometry" />
        </mxCell>
        <mxCell id="shj5jVNcUeeYBscxxg9t-20" value="&lt;font style=&quot;font-size: 30px&quot;&gt;In Current Configuration, There is no &#39;release&#39; concept of gitflow in our processing flow, the maven command of func startAndRelease() of gitflowutil will merge the building branch itself and merge to &#39;master&#39; branch (if you don&#39;t define $masterBranchName in ci.properties, the default is repo&#39;s master&#39;. if we want to avoid the merge conflict in current setup. we need to introduce a extra layer of branches to our repos. e.g. developing at &#39;active_develop&#39; and define $masterBranchName of gitflowutil with &#39;feature&#39; branch, when all tests ok, merge to the stable repo&#39;s develop branch manually by PR, merge from repo&#39;s develop to repo&#39;s master follows the same way.&lt;/font&gt;" style="text;html=1;strokeColor=none;fillColor=none;align=left;verticalAlign=middle;whiteSpace=wrap;rounded=0;" vertex="1" parent="1">
          <mxGeometry x="870" y="600" width="780" height="410" as="geometry" />
        </mxCell>
      </root>
    </mxGraphModel>
  </diagram>
</mxfile>
